<svg width="800" height="500" viewBox="0 0 800 500" xmlns="http://www.w3.org/2000/svg">
  <!-- Hero Image: Profissionais 50+ em ambiente corporativo -->
  <defs>
    <linearGradient id="bgGrad" x1="0%" y1="0%" x2="100%" y2="100%">
      <stop offset="0%" style="stop-color:#F8FAFC"/>
      <stop offset="100%" style="stop-color:#E2E8F0"/>
    </linearGradient>
    <linearGradient id="overlay" x1="0%" y1="0%" x2="100%" y2="100%">
      <stop offset="0%" style="stop-color:#1B4B84;stop-opacity:0.1"/>
      <stop offset="100%" style="stop-color:#4A90BC;stop-opacity:0.2"/>
    </linearGradient>
  </defs>
  
  <!-- Background -->
  <rect width="800" height="500" fill="url(#bgGrad)"/>
  
  <!-- Office environment -->
  <!-- Conference table -->
  <ellipse cx="400" cy="350" rx="200" ry="80" fill="#E5E7EB"/>
  <ellipse cx="400" cy="340" rx="200" ry="80" fill="#F3F4F6"/>
  
  <!-- Professional 1 - Senior woman -->
  <g transform="translate(250, 150)">
    <!-- Head -->
    <circle cx="0" cy="0" r="25" fill="#F3E8D0"/>
    <!-- Hair (gray/silver) -->
    <path d="M-25 -10 Q-30 -25 -15 -35 Q0 -40 15 -35 Q30 -25 25 -10 Q20 -5 0 -5 Q-20 -5 -25 -10" fill="#9CA3AF"/>
    <!-- Face features -->
    <circle cx="-8" cy="-5" r="2" fill="#374151"/>
    <circle cx="8" cy="-5" r="2" fill="#374151"/>
    <path d="M-5 5 Q0 10 5 5" stroke="#374151" fill="none" stroke-width="2"/>
    <!-- Glasses -->
    <circle cx="-8" cy="-5" r="8" fill="none" stroke="#374151" stroke-width="2"/>
    <circle cx="8" cy="-5" r="8" fill="none" stroke="#374151" stroke-width="2"/>
    <line x1="0" y1="-5" x2="0" y2="-5" stroke="#374151" stroke-width="2"/>
    
    <!-- Body - business attire -->
    <rect x="-20" y="25" width="40" height="60" rx="5" fill="#1E40AF"/>
    <rect x="-15" y="30" width="30" height="50" rx="3" fill="#FFFFFF"/>
    <!-- Arms -->
    <ellipse cx="-30" cy="50" rx="8" ry="25" fill="#F3E8D0"/>
    <ellipse cx="30" cy="50" rx="8" ry="25" fill="#F3E8D0"/>
    <!-- Hands holding document -->
    <rect x="20" y="60" width="15" height="20" rx="2" fill="#FFFFFF"/>
  </g>
  
  <!-- Professional 2 - Senior man -->
  <g transform="translate(550, 160)">
    <!-- Head -->
    <circle cx="0" cy="0" r="25" fill="#E8D5B7"/>
    <!-- Hair (gray) -->
    <path d="M-25 -10 Q-30 -25 -15 -35 Q0 -40 15 -35 Q30 -25 25 -10 Q20 -5 0 -5 Q-20 -5 -25 -10" fill="#6B7280"/>
    <!-- Face features -->
    <circle cx="-8" cy="-5" r="2" fill="#374151"/>
    <circle cx="8" cy="-5" r="2" fill="#374151"/>
    <path d="M-5 5 Q0 10 5 5" stroke="#374151" fill="none" stroke-width="2"/>
    
    <!-- Body - business suit -->
    <rect x="-20" y="25" width="40" height="60" rx="5" fill="#374151"/>
    <rect x="-15" y="30" width="30" height="50" rx="3" fill="#FFFFFF"/>
    <rect x="-5" y="30" width="10" height="50" fill="#DC2626"/>
    <!-- Arms -->
    <ellipse cx="-30" cy="50" rx="8" ry="25" fill="#E8D5B7"/>
    <ellipse cx="30" cy="50" rx="8" ry="25" fill="#E8D5B7"/>
  </g>
  
  <!-- Professional 3 - Mid-ground -->
  <g transform="translate(400, 180)">
    <!-- Head -->
    <circle cx="0" cy="0" r="20" fill="#DDD6C7"/>
    <!-- Hair -->
    <path d="M-20 -8 Q-25 -20 -12 -28 Q0 -32 12 -28 Q25 -20 20 -8 Q16 -4 0 -4 Q-16 -4 -20 -8" fill="#4B5563"/>
    <!-- Face features -->
    <circle cx="-6" cy="-4" r="1.5" fill="#374151"/>
    <circle cx="6" cy="-4" r="1.5" fill="#374151"/>
    <path d="M-4 4 Q0 8 4 4" stroke="#374151" fill="none" stroke-width="1.5"/>
    
    <!-- Body -->
    <rect x="-16" y="20" width="32" height="48" rx="4" fill="#059669"/>
    <rect x="-12" y="24" width="24" height="40" rx="2" fill="#FFFFFF"/>
  </g>
  
  <!-- Office elements -->
  <!-- Laptop -->
  <g transform="translate(300, 320)">
    <rect x="0" y="0" width="60" height="40" rx="3" fill="#374151"/>
    <rect x="2" y="2" width="56" height="30" rx="2" fill="#F3F4F6"/>
    <rect x="4" y="4" width="52" height="26" rx="1" fill="#1E40AF"/>
  </g>
  
  <!-- Documents -->
  <g transform="translate(480, 330)">
    <rect x="0" y="0" width="40" height="30" rx="2" fill="#FFFFFF"/>
    <rect x="2" y="5" width="36" height="2" fill="#E5E7EB"/>
    <rect x="2" y="10" width="30" height="2" fill="#E5E7EB"/>
    <rect x="2" y="15" width="32" height="2" fill="#E5E7EB"/>
  </g>
  
  <!-- Coffee cups -->
  <circle cx="200" cy="340" r="8" fill="#92400E"/>
  <circle cx="200" cy="340" r="6" fill="#D97706"/>
  <circle cx="600" cy="345" r="8" fill="#92400E"/>
  <circle cx="600" cy="345" r="6" fill="#D97706"/>
  
  <!-- Subtle blue overlay for contrast -->
  <rect width="800" height="500" fill="url(#overlay)"/>
  
  <!-- Professional ambiance elements -->
  <!-- Windows in background -->
  <rect x="50" y="50" width="100" height="120" rx="5" fill="rgba(255,255,255,0.3)"/>
  <rect x="650" y="60" width="100" height="120" rx="5" fill="rgba(255,255,255,0.3)"/>
  
  <!-- Subtle grid pattern -->
  <pattern id="grid" width="50" height="50" patternUnits="userSpaceOnUse">
    <path d="M 50 0 L 0 0 0 50" fill="none" stroke="rgba(27,75,132,0.05)" stroke-width="1"/>
  </pattern>
  <rect width="800" height="500" fill="url(#grid)"/>
</svg>












