<svg width="220" height="44" viewBox="0 0 220 44" xmlns="http://www.w3.org/2000/svg">
  <!-- 50 with geometric design inspired by the provided logo -->
  <g transform="translate(10, 8)">
    <!-- Number 5 with rounded rectangles -->
    <g fill="#1B4B84">
      <rect x="0" y="0" width="18" height="6" rx="2"/>
      <rect x="0" y="0" width="6" height="14" rx="2"/>
      <rect x="0" y="8" width="16" height="6" rx="2"/>
      <rect x="12" y="14" width="6" height="14" rx="2"/>
      <rect x="0" y="22" width="18" height="6" rx="2"/>
    </g>
    
    <!-- Number 0 with circular segments -->
    <g transform="translate(24, 0)">
      <path d="M 14 0 A 14 14 0 0 1 14 28 A 14 14 0 0 1 14 0 Z" fill="#1B4B84"/>
      <path d="M 14 0 A 14 14 0 0 0 14 28 A 14 14 0 0 0 14 0 Z" fill="#4A90BC"/>
      <circle cx="14" cy="14" r="6" fill="white"/>
    </g>
    
    <!-- Plus sign -->
    <g transform="translate(60, 8)" fill="#F59E0B">
      <rect x="4" y="0" width="4" height="12" rx="1"/>
      <rect x="0" y="4" width="12" height="4" rx="1"/>
    </g>
  </g>
  
  <!-- Text "Empregos" -->
  <text x="90" y="30" font-family="Inter, sans-serif" font-size="18" font-weight="700" fill="#374151">
    Empregos
  </text>
</svg>
