<svg width="320" height="180" viewBox="0 0 320 180" xmlns="http://www.w3.org/2000/svg">
  <!-- Curso IA para 50+ - Ratio 16:9 -->
  <defs>
    <linearGradient id="iaBg" x1="0%" y1="0%" x2="100%" y2="100%">
      <stop offset="0%" style="stop-color:#1E40AF"/>
      <stop offset="100%" style="stop-color:#3B82F6"/>
    </linearGradient>
    <linearGradient id="iaAccent" x1="0%" y1="0%" x2="100%" y2="100%">
      <stop offset="0%" style="stop-color:#F59E0B"/>
      <stop offset="100%" style="stop-color:#FBBF24"/>
    </linearGradient>
  </defs>
  
  <!-- Background -->
  <rect width="320" height="180" fill="url(#iaBg)"/>
  
  <!-- Circuit pattern -->
  <g opacity="0.1">
    <path d="M50 50 L100 50 L100 80 L150 80" stroke="white" stroke-width="2" fill="none"/>
    <path d="M200 40 L250 40 L250 70 L270 70" stroke="white" stroke-width="2" fill="none"/>
    <circle cx="100" cy="50" r="3" fill="white"/>
    <circle cx="150" cy="80" r="3" fill="white"/>
    <circle cx="250" cy="40" r="3" fill="white"/>
  </g>
  
  <!-- Brain/AI icon -->
  <g transform="translate(160, 90)">
    <!-- Brain shape -->
    <path d="M-20 -15 Q-25 -25 -10 -30 Q5 -35 20 -30 Q35 -25 30 -15 Q25 -5 20 0 Q10 5 0 5 Q-10 5 -20 0 Q-25 -5 -20 -15" 
          fill="url(#iaAccent)"/>
    <!-- Neural connections -->
    <circle cx="-10" cy="-15" r="2" fill="white"/>
    <circle cx="0" cy="-20" r="2" fill="white"/>
    <circle cx="10" cy="-15" r="2" fill="white"/>
    <circle cx="-5" cy="-5" r="2" fill="white"/>
    <circle cx="5" cy="-5" r="2" fill="white"/>
    <!-- Connection lines -->
    <line x1="-10" y1="-15" x2="0" y2="-20" stroke="white" stroke-width="1"/>
    <line x1="0" y1="-20" x2="10" y2="-15" stroke="white" stroke-width="1"/>
    <line x1="-5" y1="-5" x2="5" y2="-5" stroke="white" stroke-width="1"/>
  </g>
  
  <!-- Decorative elements -->
  <circle cx="60" cy="40" r="15" fill="rgba(245, 158, 11, 0.2)"/>
  <circle cx="260" cy="140" r="20" fill="rgba(245, 158, 11, 0.2)"/>
  
  <!-- Abstract tech elements -->
  <rect x="30" y="120" width="40" height="3" rx="1.5" fill="rgba(255, 255, 255, 0.3)"/>
  <rect x="30" y="130" width="30" height="3" rx="1.5" fill="rgba(255, 255, 255, 0.3)"/>
  <rect x="30" y="140" width="35" height="3" rx="1.5" fill="rgba(255, 255, 255, 0.3)"/>
  
  <rect x="250" y="120" width="40" height="3" rx="1.5" fill="rgba(255, 255, 255, 0.3)"/>
  <rect x="260" y="130" width="30" height="3" rx="1.5" fill="rgba(255, 255, 255, 0.3)"/>
  <rect x="250" y="140" width="35" height="3" rx="1.5" fill="rgba(255, 255, 255, 0.3)"/>
</svg>














