<svg width="120" height="120" viewBox="0 0 120 120" xmlns="http://www.w3.org/2000/svg">
  <!-- Ãcone setorial para Administrativo -->
  <defs>
    <linearGradient id="adminGrad" x1="0%" y1="0%" x2="100%" y2="100%">
      <stop offset="0%" style="stop-color:#1B4B84"/>
      <stop offset="100%" style="stop-color:#4A90BC"/>
    </linearGradient>
    <linearGradient id="accentGrad" x1="0%" y1="0%" x2="100%" y2="100%">
      <stop offset="0%" style="stop-color:#F59E0B"/>
      <stop offset="100%" style="stop-color:#FCD34D"/>
    </linearGradient>
  </defs>
  
  <!-- Background circle -->
  <circle cx="60" cy="60" r="55" fill="url(#adminGrad)" opacity="0.1"/>
  
  <!-- Document/Files -->
  <rect x="30" y="25" width="35" height="45" rx="3" fill="url(#adminGrad)" opacity="0.8"/>
  <rect x="33" y="30" width="29" height="2" rx="1" fill="white"/>
  <rect x="33" y="35" width="25" height="2" rx="1" fill="white"/>
  <rect x="33" y="40" width="27" height="2" rx="1" fill="white"/>
  <rect x="33" y="45" width="20" height="2" rx="1" fill="white"/>
  <rect x="33" y="50" width="25" height="2" rx="1" fill="white"/>
  <rect x="33" y="55" width="18" height="2" rx="1" fill="white"/>
  
  <!-- Clipboard -->
  <rect x="45" y="35" width="40" height="50" rx="3" fill="url(#adminGrad)"/>
  <rect x="48" y="40" width="34" height="2" rx="1" fill="white"/>
  <rect x="48" y="45" width="30" height="2" rx="1" fill="white"/>
  <rect x="48" y="50" width="32" height="2" rx="1" fill="white"/>
  <rect x="48" y="55" width="25" height="2" rx="1" fill="white"/>
  <rect x="48" y="60" width="30" height="2" rx="1" fill="white"/>
  <rect x="48" y="65" width="28" height="2" rx="1" fill="white"/>
  <rect x="48" y="70" width="22" height="2" rx="1" fill="white"/>
  
  <!-- Clipboard clip -->
  <rect x="55" y="30" width="16" height="8" rx="2" fill="url(#accentGrad)"/>
  <rect x="57" y="32" width="12" height="4" rx="1" fill="white"/>
  
  <!-- Calculator -->
  <rect x="75" y="50" width="25" height="30" rx="3" fill="url(#accentGrad)"/>
  <rect x="78" y="53" width="19" height="6" rx="1" fill="white"/>
  <!-- Calculator buttons -->
  <circle cx="81" cy="63" r="2" fill="white"/>
  <circle cx="87" cy="63" r="2" fill="white"/>
  <circle cx="93" cy="63" r="2" fill="white"/>
  <circle cx="81" cy="69" r="2" fill="white"/>
  <circle cx="87" cy="69" r="2" fill="white"/>
  <circle cx="93" cy="69" r="2" fill="white"/>
  <circle cx="81" cy="75" r="2" fill="white"/>
  <circle cx="87" cy="75" r="2" fill="white"/>
  
  <!-- Pen -->
  <path d="M20 85 L30 75 L35 80 L25 90 Z" fill="url(#accentGrad)"/>
  <circle cx="32.5" cy="77.5" r="2" fill="url(#adminGrad)"/>
</svg>


