<svg width="120" height="120" viewBox="0 0 120 120" xmlns="http://www.w3.org/2000/svg">
  <!-- Ícone setorial para Logística -->
  <defs>
    <linearGradient id="logGrad" x1="0%" y1="0%" x2="100%" y2="100%">
      <stop offset="0%" style="stop-color:#1B4B84"/>
      <stop offset="100%" style="stop-color:#4A90BC"/>
    </linearGradient>
    <linearGradient id="accentGrad" x1="0%" y1="0%" x2="100%" y2="100%">
      <stop offset="0%" style="stop-color:#F59E0B"/>
      <stop offset="100%" style="stop-color:#FCD34D"/>
    </linearGradient>
  </defs>
  
  <!-- Background circle -->
  <circle cx="60" cy="60" r="55" fill="url(#logGrad)" opacity="0.1"/>
  
  <!-- Delivery truck -->
  <rect x="25" y="45" width="45" height="25" rx="3" fill="url(#logGrad)"/>
  <rect x="65" y="55" width="15" height="15" rx="2" fill="url(#logGrad)"/>
  
  <!-- Truck cabin -->
  <rect x="65" y="45" width="15" height="10" rx="2" fill="url(#accentGrad)"/>
  <rect x="67" y="47" width="11" height="6" rx="1" fill="white"/>
  
  <!-- Truck wheels -->
  <circle cx="35" cy="75" r="5" fill="url(#accentGrad)"/>
  <circle cx="35" cy="75" r="3" fill="white"/>
  <circle cx="70" cy="75" r="5" fill="url(#accentGrad)"/>
  <circle cx="70" cy="75" r="3" fill="white"/>
  
  <!-- Boxes in truck -->
  <rect x="30" y="50" width="8" height="8" rx="1" fill="url(#accentGrad)" opacity="0.8"/>
  <rect x="40" y="50" width="8" height="8" rx="1" fill="white" opacity="0.9"/>
  <rect x="50" y="50" width="8" height="8" rx="1" fill="url(#accentGrad)" opacity="0.8"/>
  <rect x="35" y="58" width="8" height="8" rx="1" fill="white" opacity="0.9"/>
  <rect x="45" y="58" width="8" height="8" rx="1" fill="url(#accentGrad)" opacity="0.8"/>
  
  <!-- Warehouse boxes -->
  <rect x="85" y="30" width="15" height="15" rx="2" fill="url(#logGrad)"/>
  <rect x="87" y="32" width="11" height="2" rx="1" fill="white"/>
  <rect x="87" y="36" width="8" height="2" rx="1" fill="white"/>
  <rect x="87" y="40" width="9" height="2" rx="1" fill="white"/>
  
  <rect x="85" y="50" width="15" height="15" rx="2" fill="url(#accentGrad)"/>
  <rect x="87" y="52" width="11" height="2" rx="1" fill="white"/>
  <rect x="87" y="56" width="8" height="2" rx="1" fill="white"/>
  <rect x="87" y="60" width="9" height="2" rx="1" fill="white"/>
  
  <rect x="85" y="70" width="15" height="15" rx="2" fill="url(#logGrad)"/>
  <rect x="87" y="72" width="11" height="2" rx="1" fill="white"/>
  <rect x="87" y="76" width="8" height="2" rx="1" fill="white"/>
  <rect x="87" y="80" width="9" height="2" rx="1" fill="white"/>
  
  <!-- Forklift -->
  <rect x="15" y="85" width="20" height="8" rx="2" fill="url(#accentGrad)"/>
  <rect x="12" y="85" width="6" height="15" rx="1" fill="url(#accentGrad)"/>
  <circle cx="20" cy="97" r="3" fill="url(#logGrad)"/>
  <circle cx="30" cy="97" r="3" fill="url(#logGrad)"/>
  
  <!-- Package with arrow (movement) -->
  <rect x="45" y="20" width="12" height="12" rx="2" fill="url(#accentGrad)"/>
  <path d="M55 30 L65 30 L62 27 M65 30 L62 33" stroke="url(#logGrad)" stroke-width="2" fill="none"/>
  
  <!-- Barcode -->
  <rect x="20" y="25" width="2" height="10" fill="url(#logGrad)"/>
  <rect x="24" y="25" width="1" height="10" fill="url(#logGrad)"/>
  <rect x="27" y="25" width="2" height="10" fill="url(#logGrad)"/>
  <rect x="31" y="25" width="1" height="10" fill="url(#logGrad)"/>
  <rect x="34" y="25" width="3" height="10" fill="url(#logGrad)"/>
</svg>
