<svg width="120" height="120" viewBox="0 0 120 120" xmlns="http://www.w3.org/2000/svg">
  <!-- Ícone setorial para Saúde -->
  <defs>
    <linearGradient id="healthGrad" x1="0%" y1="0%" x2="100%" y2="100%">
      <stop offset="0%" style="stop-color:#1B4B84"/>
      <stop offset="100%" style="stop-color:#4A90BC"/>
    </linearGradient>
    <linearGradient id="accentGrad" x1="0%" y1="0%" x2="100%" y2="100%">
      <stop offset="0%" style="stop-color:#F59E0B"/>
      <stop offset="100%" style="stop-color:#FCD34D"/>
    </linearGradient>
    <linearGradient id="medicalGrad" x1="0%" y1="0%" x2="100%" y2="100%">
      <stop offset="0%" style="stop-color:#DC2626"/>
      <stop offset="100%" style="stop-color:#EF4444"/>
    </linearGradient>
  </defs>
  
  <!-- Background circle -->
  <circle cx="60" cy="60" r="55" fill="url(#healthGrad)" opacity="0.1"/>
  
  <!-- Medical cross -->
  <rect x="50" y="35" width="20" height="50" rx="3" fill="url(#medicalGrad)"/>
  <rect x="35" y="50" width="50" height="20" rx="3" fill="url(#medicalGrad)"/>
  
  <!-- Stethoscope -->
  <path d="M25 40 Q20 45 25 50 Q30 45 25 40" fill="url(#healthGrad)" stroke="url(#healthGrad)" stroke-width="2"/>
  <path d="M25 50 Q25 60 35 65 Q40 67 45 65 Q50 60 50 55" fill="none" stroke="url(#healthGrad)" stroke-width="3"/>
  <circle cx="22" cy="45" r="3" fill="url(#accentGrad)"/>
  <circle cx="28" cy="45" r="3" fill="url(#accentGrad)"/>
  
  <!-- Medical clipboard -->
  <rect x="75" y="25" width="25" height="35" rx="3" fill="url(#healthGrad)"/>
  <rect x="78" y="30" width="19" height="2" rx="1" fill="white"/>
  <rect x="78" y="35" width="15" height="2" rx="1" fill="white"/>
  <rect x="78" y="40" width="17" height="2" rx="1" fill="white"/>
  <rect x="78" y="45" width="12" height="2" rx="1" fill="white"/>
  <rect x="78" y="50" width="16" height="2" rx="1" fill="white"/>
  
  <!-- Medical clipboard clip -->
  <rect x="82" y="20" width="12" height="6" rx="2" fill="url(#accentGrad)"/>
  <rect x="84" y="22" width="8" height="2" rx="1" fill="white"/>
  
  <!-- Pills -->
  <ellipse cx="30" cy="85" rx="4" ry="8" fill="url(#accentGrad)"/>
  <ellipse cx="30" cy="85" rx="4" ry="4" fill="white"/>
  
  <ellipse cx="45" cy="90" rx="8" ry="4" fill="url(#medicalGrad)"/>
  <ellipse cx="45" cy="90" rx="4" ry="4" fill="white"/>
  
  <!-- Heart monitor line -->
  <path d="M15 75 L25 75 L30 65 L35 85 L40 55 L45 75 L55 75" fill="none" stroke="url(#accentGrad)" stroke-width="2"/>
  
  <!-- Medical bag -->
  <rect x="75" y="75" width="30" height="20" rx="3" fill="url(#healthGrad)"/>
  <rect x="82" y="70" width="16" height="5" rx="2" fill="url(#healthGrad)"/>
  <rect x="88" y="68" width="4" height="2" fill="url(#accentGrad)"/>
  <rect x="85" y="82" width="10" height="2" rx="1" fill="white"/>
  <rect x="89" y="78" width="2" height="10" rx="1" fill="white"/>
</svg>









