<svg width="80" height="80" viewBox="0 0 80 80" xmlns="http://www.w3.org/2000/svg">
  <!-- Ilustração flat moderna para Capacitação Digital -->
  <defs>
    <linearGradient id="primaryGrad" x1="0%" y1="0%" x2="100%" y2="100%">
      <stop offset="0%" style="stop-color:#1B4B84"/>
      <stop offset="100%" style="stop-color:#4A90BC"/>
    </linearGradient>
    <linearGradient id="secondaryGrad" x1="0%" y1="0%" x2="100%" y2="100%">
      <stop offset="0%" style="stop-color:#6BB6D6"/>
      <stop offset="100%" style="stop-color:#4A90BC"/>
    </linearGradient>
    <linearGradient id="accentGrad" x1="0%" y1="0%" x2="100%" y2="100%">
      <stop offset="0%" style="stop-color:#F59E0B"/>
      <stop offset="100%" style="stop-color:#FCD34D"/>
    </linearGradient>
  </defs>
  
  <!-- Background -->
  <circle cx="40" cy="40" r="38" fill="url(#primaryGrad)" opacity="0.1"/>
  
  <!-- Laptop -->
  <rect x="20" y="35" width="40" height="25" rx="2" fill="url(#primaryGrad)"/>
  <rect x="22" y="37" width="36" height="20" rx="1" fill="#ffffff"/>
  <rect x="37" y="60" width="6" height="3" fill="url(#primaryGrad)"/>
  <rect x="30" y="63" width="20" height="2" rx="1" fill="url(#primaryGrad)"/>
  
  <!-- Screen content - code/learning -->
  <rect x="24" y="39" width="8" height="2" fill="url(#accentGrad)"/>
  <rect x="24" y="42" width="12" height="2" fill="url(#secondaryGrad)"/>
  <rect x="24" y="45" width="6" height="2" fill="url(#primaryGrad)"/>
  <rect x="24" y="48" width="10" height="2" fill="url(#accentGrad)"/>
  <rect x="24" y="51" width="14" height="2" fill="url(#secondaryGrad)"/>
  
  <!-- Play button -->
  <circle cx="50" cy="47" r="6" fill="url(#accentGrad)" opacity="0.2"/>
  <path d="M47 44 L53 47 L47 50 Z" fill="url(#accentGrad)"/>
  
  <!-- Floating elements - learning symbols -->
  <circle cx="15" cy="20" r="3" fill="url(#accentGrad)" opacity="0.7"/>
  <rect x="12" y="17" width="6" height="1" fill="#ffffff"/>
  <rect x="14" y="19" width="2" height="4" fill="#ffffff"/>
  
  <!-- Graduation cap -->
  <path d="M60 15 L70 20 L60 25 L50 20 Z" fill="url(#primaryGrad)"/>
  <rect x="59" y="25" width="2" height="8" fill="url(#primaryGrad)"/>
  <rect x="57" y="33" width="6" height="2" fill="url(#accentGrad)"/>
  
  <!-- Knowledge symbols -->
  <circle cx="10" cy="55" r="2" fill="url(#secondaryGrad)" opacity="0.6"/>
  <circle cx="70" cy="60" r="2" fill="url(#accentGrad)" opacity="0.5"/>
</svg>


