<svg width="80" height="80" viewBox="0 0 80 80" xmlns="http://www.w3.org/2000/svg">
  <!-- Ilustração flat moderna para Parcerias Age-Friendly -->
  <defs>
    <linearGradient id="primaryGrad" x1="0%" y1="0%" x2="100%" y2="100%">
      <stop offset="0%" style="stop-color:#1B4B84"/>
      <stop offset="100%" style="stop-color:#4A90BC"/>
    </linearGradient>
    <linearGradient id="secondaryGrad" x1="0%" y1="0%" x2="100%" y2="100%">
      <stop offset="0%" style="stop-color:#6BB6D6"/>
      <stop offset="100%" style="stop-color:#4A90BC"/>
    </linearGradient>
    <linearGradient id="accentGrad" x1="0%" y1="0%" x2="100%" y2="100%">
      <stop offset="0%" style="stop-color:#F59E0B"/>
      <stop offset="100%" style="stop-color:#FCD34D"/>
    </linearGradient>
  </defs>
  
  <!-- Background -->
  <circle cx="40" cy="40" r="38" fill="url(#primaryGrad)" opacity="0.1"/>
  
  <!-- Two people shaking hands -->
  <!-- Person 1 -->
  <circle cx="25" cy="25" r="6" fill="url(#primaryGrad)"/>
  <rect x="20" y="32" width="10" height="15" rx="2" fill="url(#primaryGrad)"/>
  <rect x="18" y="35" width="6" height="10" rx="2" fill="url(#primaryGrad)"/>
  
  <!-- Person 2 -->
  <circle cx="55" cy="25" r="6" fill="url(#accentGrad)"/>
  <rect x="50" y="32" width="10" height="15" rx="2" fill="url(#accentGrad)"/>
  <rect x="56" y="35" width="6" height="10" rx="2" fill="url(#accentGrad)"/>
  
  <!-- Handshake in center -->
  <ellipse cx="40" cy="40" rx="8" ry="4" fill="url(#secondaryGrad)" opacity="0.3"/>
  <rect x="30" y="37" width="8" height="6" rx="3" fill="url(#primaryGrad)"/>
  <rect x="42" y="37" width="8" height="6" rx="3" fill="url(#accentGrad)"/>
  
  <!-- Building/Company in background -->
  <rect x="35" y="55" width="10" height="15" fill="url(#secondaryGrad)" opacity="0.5"/>
  <rect x="37" y="57" width="2" height="2" fill="#ffffff"/>
  <rect x="41" y="57" width="2" height="2" fill="#ffffff"/>
  <rect x="37" y="61" width="2" height="2" fill="#ffffff"/>
  <rect x="41" y="61" width="2" height="2" fill="#ffffff"/>
  <rect x="37" y="65" width="6" height="3" fill="url(#accentGrad)"/>
  
  <!-- Partnership symbols -->
  <circle cx="15" cy="15" r="3" fill="url(#accentGrad)" opacity="0.6"/>
  <path d="M13 13 L17 13 L15 10 Z" fill="#ffffff"/>
  <circle cx="65" cy="15" r="3" fill="url(#secondaryGrad)" opacity="0.6"/>
  <path d="M63 13 L67 13 L65 10 Z" fill="#ffffff"/>
  
  <!-- Success indicators -->
  <circle cx="10" cy="60" r="2" fill="url(#accentGrad)" opacity="0.7"/>
  <circle cx="70" cy="60" r="2" fill="url(#primaryGrad)" opacity="0.7"/>
  
  <!-- Trust/certification symbol -->
  <circle cx="40" cy="15" r="4" fill="url(#accentGrad)" opacity="0.8"/>
  <path d="M38 15 L40 17 L42 13" stroke="#ffffff" stroke-width="1.5" fill="none"/>
</svg>


