<svg width="80" height="80" viewBox="0 0 80 80" xmlns="http://www.w3.org/2000/svg">
  <!-- Ilustração flat moderna para Recolocação Focada -->
  <defs>
    <linearGradient id="primaryGrad" x1="0%" y1="0%" x2="100%" y2="100%">
      <stop offset="0%" style="stop-color:#1B4B84"/>
      <stop offset="100%" style="stop-color:#4A90BC"/>
    </linearGradient>
    <linearGradient id="accentGrad" x1="0%" y1="0%" x2="100%" y2="100%">
      <stop offset="0%" style="stop-color:#F59E0B"/>
      <stop offset="100%" style="stop-color:#FCD34D"/>
    </linearGradient>
  </defs>
  
  <!-- Background circle -->
  <circle cx="40" cy="40" r="38" fill="url(#primaryGrad)" opacity="0.1"/>
  
  <!-- Target/Bullseye -->
  <circle cx="40" cy="40" r="24" fill="none" stroke="url(#primaryGrad)" stroke-width="3"/>
  <circle cx="40" cy="40" r="16" fill="none" stroke="url(#primaryGrad)" stroke-width="2" opacity="0.7"/>
  <circle cx="40" cy="40" r="8" fill="url(#accentGrad)"/>
  
  <!-- Arrow pointing to center -->
  <path d="M25 20 L35 30 L32 33 L22 23 Z" fill="url(#primaryGrad)"/>
  <path d="M22 23 L32 33 L29 36 L19 26 Z" fill="url(#primaryGrad)" opacity="0.7"/>
  
  <!-- Person silhouette -->
  <circle cx="55" cy="25" r="4" fill="url(#accentGrad)"/>
  <path d="M55 30 C52 30 50 32 50 35 L50 45 L53 45 L53 42 L57 42 L57 45 L60 45 L60 35 C60 32 58 30 55 30 Z" fill="url(#accentGrad)"/>
  
  <!-- Success indicators -->
  <circle cx="65" cy="55" r="3" fill="url(#accentGrad)" opacity="0.8"/>
  <circle cx="15" cy="60" r="2" fill="url(#primaryGrad)" opacity="0.6"/>
  <circle cx="20" cy="50" r="2" fill="url(#accentGrad)" opacity="0.5"/>
</svg>


